<svg xmlns="http://www.w3.org/2000/svg" version="1.1" xmlns:xlink="http://www.w3.org/1999/xlink" width="512" height="512" x="0" y="0" viewBox="0 0 512 512" style="enable-background:new 0 0 512 512" xml:space="preserve" class=""><g><path d="M462.266 55.661c-.079-.001-.158-.007-.238-.006-.039 0-.077-.003-.116-.003H50.087l-.107.002c-.072 0-.145.004-.217.006C22.295 55.836 0 78.229 0 105.739v300.522c0 27.618 22.469 50.087 50.087 50.087h411.826c27.618 0 50.087-22.469 50.087-50.087V105.739c0-27.5-22.279-49.886-49.734-50.078zm-40.49 33.382L256 254.808 90.236 89.043h331.54zM66.783 422.957H50.087c-9.206 0-16.696-7.49-16.696-16.696V173.872l33.391 33.391v215.694zm345.043 0H100.174V240.654l120.409 120.409c9.764 9.765 22.59 14.646 35.417 14.646 12.827 0 25.652-4.882 35.417-14.646l120.409-120.409v182.303zm66.783-16.696c0 9.206-7.49 16.696-16.696 16.696h-16.696V207.263l33.391-33.391v232.389zm0-279.611-61.89 61.89-.006.006-148.907 148.906A16.588 16.588 0 0 1 256 342.343c-4.46 0-8.652-1.737-11.806-4.891L95.287 188.545l-.006-.006-61.89-61.89v-20.911c0-7.106 4.47-13.173 10.74-15.578l200.063 200.063a16.643 16.643 0 0 0 11.805 4.891c4.272 0 8.546-1.631 11.805-4.89l200.075-200.06c6.264 2.409 10.73 8.473 10.73 15.575v20.911z" fill="#ffffff" opacity="1" data-original="#000000" class=""></path></g></svg>